# Blender v2.78 (sub 0) OBJ File: ''
# www.blender.org
mtllib mycube.mtl
o Cube_Cube.001
v 1.099906 1.559793 -0.910383
v 1.099906 -0.440207 -0.910383
v 1.099906 1.559793 1.089617
v 1.099906 -0.440207 1.089617
v -0.900094 1.559793 -0.910383
v -0.900094 -0.440207 -0.910383
v -0.900094 1.559793 1.089617
v -0.900094 -0.440207 1.089617
vt 0.7500 0.2500
vt 0.9999 0.2500
vt 0.9999 0.5000
vt 0.7500 0.5000
vt 0.5000 0.2500
vt 0.5000 0.5000
vt 0.2500 0.2500
vt 0.2500 0.0001
vt 0.5000 0.0001
vt 0.5000 0.7500
vt 0.2500 0.7500
vt 0.2500 0.5000
vt 0.0001 0.5000
vt 0.0001 0.2500
vn 0.0000 1.0000 0.0000
vn 1.0000 0.0000 0.0000
vn 0.0000 0.0000 -1.0000
vn 0.0000 0.0000 1.0000
vn 0.0000 -1.0000 0.0000
vn -1.0000 0.0000 0.0000
usemtl Material.001
s off
f 1/1/1 5/2/1 7/3/1 3/4/1
f 2/5/2 1/1/2 3/4/2 4/6/2
f 6/7/3 5/8/3 1/9/3 2/5/3
f 4/6/4 3/10/4 7/11/4 8/12/4
f 6/7/5 2/5/5 4/6/5 8/12/5
f 8/12/6 7/13/6 5/14/6 6/7/6
